<svg viewBox="0 0 700 480" xmlns="http://www.w3.org/2000/svg">
<defs>
  <pattern id="hatch" patternUnits="userSpaceOnUse" width="8" height="8">
    <path d="M0,0 l8,8" stroke="#999" stroke-width="0.5"/>
  </pattern>
  <pattern id="cut-hatch" patternUnits="userSpaceOnUse" width="4" height="4">
    <path d="M0,0 l4,4 M0,4 l4,-4" stroke="#666" stroke-width="0.8"/>
  </pattern>
  <pattern id="ground" patternUnits="userSpaceOnUse" width="20" height="10">
    <path d="M0,10 L10,0 M10,10 L20,0" stroke="#666" stroke-width="0.5"/>
  </pattern>
  <linearGradient id="copper" x1="0%" y1="0%" x2="0%" y2="100%">
    <stop offset="0%" style="stop-color:#7CB9A5"/>
    <stop offset="100%" style="stop-color:#4A8A77"/>
  </linearGradient>
</defs>

<!-- Hintergrund -->
<rect width="700" height="480" fill="#FFFFFF"/>

<!-- Terrain-Linie -->
<rect x="0" y="370" width="700" height="110" fill="url(#ground)"/>
<line x1="80" y1="370" x2="580" y2="370" stroke="#000" stroke-width="2"/>

<!-- Seitenschiffe -->
<rect x="150" y="310" width="50" height="60" fill="url(#hatch)" stroke="#000" stroke-width="1.5"/>
<polygon points="150,310 175,280 200,310" fill="url(#hatch)" stroke="#000" stroke-width="1.5"/>

<rect x="380" y="310" width="50" height="60" fill="url(#hatch)" stroke="#000" stroke-width="1.5"/>
<polygon points="380,310 405,280 430,310" fill="url(#hatch)" stroke="#000" stroke-width="1.5"/>

<!-- Chor -->
<rect x="450" y="330" width="80" height="40" fill="url(#hatch)" stroke="#000" stroke-width="1.5"/>
<polygon points="450,330 490,300 530,330" fill="url(#hatch)" stroke="#000" stroke-width="1.5"/>

<!-- Kirchenschiff (Hauptgebäude) -->
<rect x="200" y="270" width="180" height="100" fill="url(#hatch)" stroke="#000" stroke-width="2"/>
<polygon points="200,270 290,220 380,270" fill="url(#hatch)" stroke="#000" stroke-width="2"/>

<!-- Westturm -->
<rect x="100" y="170" width="60" height="200" fill="url(#hatch)" stroke="#000" stroke-width="2"/>
<polygon points="100,170 130,140 160,170" fill="url(#hatch)" stroke="#000" stroke-width="2"/>

<!-- Gerüst Westturm -->
<line x1="80" y1="140" x2="80" y2="370" stroke="#0066CC" stroke-width="3"/>
<line x1="180" y1="140" x2="180" y2="370" stroke="#0066CC" stroke-width="3"/>
<rect x="80" y="150" width="100" height="3" fill="#8B4513"/>
<rect x="80" y="180" width="100" height="3" fill="#8B4513"/>
<rect x="80" y="210" width="100" height="3" fill="#8B4513"/>
<rect x="80" y="240" width="100" height="3" fill="#8B4513"/>
<rect x="80" y="270" width="100" height="3" fill="#8B4513"/>
<rect x="80" y="300" width="100" height="3" fill="#8B4513"/>
<rect x="80" y="330" width="100" height="3" fill="#8B4513"/>

<!-- Gerüst Kirchenschiff -->
<line x1="130" y1="220" x2="130" y2="370" stroke="#0066CC" stroke-width="3"/>
<line x1="450" y1="220" x2="450" y2="370" stroke="#0066CC" stroke-width="3"/>
<rect x="130" y="230" width="320" height="3" fill="#8B4513"/>
<rect x="130" y="260" width="320" height="3" fill="#8B4513"/>
<rect x="130" y="290" width="320" height="3" fill="#8B4513"/>
<rect x="130" y="320" width="320" height="3" fill="#8B4513"/>
<rect x="130" y="350" width="320" height="3" fill="#8B4513"/>

<!-- Gerüst Chor -->
<line x1="550" y1="300" x2="550" y2="370" stroke="#0066CC" stroke-width="3"/>
<rect x="450" y="310" width="100" height="3" fill="#8B4513"/>
<rect x="450" y="340" width="100" height="3" fill="#8B4513"/>

<!-- Verankerungen -->
<line x1="130" y1="280" x2="200" y2="280" stroke="#CC0000" stroke-width="2" stroke-dasharray="5,5"/>
<line x1="380" y1="280" x2="450" y2="280" stroke="#CC0000" stroke-width="2" stroke-dasharray="5,5"/>
<line x1="130" y1="190" x2="160" y2="190" stroke="#CC0000" stroke-width="2" stroke-dasharray="5,5"/>

<!-- Höhenskala -->
<line x1="60" y1="140" x2="60" y2="370" stroke="#000" stroke-width="1"/>
<line x1="55" y1="370" x2="65" y2="370" stroke="#000" stroke-width="1"/>
<line x1="55" y1="270" x2="65" y2="270" stroke="#000" stroke-width="1"/>
<line x1="55" y1="220" x2="65" y2="220" stroke="#000" stroke-width="1"/>
<line x1="55" y1="140" x2="65" y2="140" stroke="#000" stroke-width="1"/>

<text x="45" y="375" text-anchor="end" font-size="10" fill="#000">±0.00</text>
<text x="45" y="275" text-anchor="end" font-size="10" fill="#000">+18.0</text>
<text x="45" y="225" text-anchor="end" font-size="10" fill="#000">+25.0</text>
<text x="45" y="145" text-anchor="end" font-size="10" fill="#000">+54.6</text>

<!-- Lagenbeschriftung -->
<text x="620" y="355" font-size="10" fill="#000">1. Lage</text>
<text x="620" y="325" font-size="10" fill="#000">2. Lage</text>
<text x="620" y="295" font-size="10" fill="#000">3. Lage</text>
<text x="620" y="265" font-size="10" fill="#000">4. Lage</text>
<text x="620" y="235" font-size="10" fill="#000">5. Lage</text>
<text x="620" y="185" font-size="10" fill="#000">6. Lage</text>
<text x="620" y="155" font-size="10" fill="#000">7. Lage</text>

<!-- Titel -->
<text x="350" y="30" text-anchor="middle" font-size="14" font-weight="bold" fill="#000">Kirche St. Peter und Paul - Südfassade</text>
<text x="350" y="50" text-anchor="middle" font-size="12" fill="#000">Rathausgasse 2, 3011 Bern - EGID: 191821074</text>

</svg>