<svg viewBox="0 0 700 480" xmlns="http://www.w3.org/2000/svg">
  <defs>
    <!-- LOCKERE Schraffur fuer Aussenflaechen -->
    <pattern id="hatch" patternUnits="userSpaceOnUse" width="8" height="8">
      <path d="M0,0 l8,8" stroke="#999" stroke-width="0.5"/>
    </pattern>

    <!-- DICHTE Schraffur fuer Schnittflaechen -->
    <pattern id="cut-hatch" patternUnits="userSpaceOnUse" width="4" height="4">
      <path d="M0,0 l4,4 M0,4 l4,-4" stroke="#666" stroke-width="0.8"/>
    </pattern>

    <!-- Terrain/Boden -->
    <pattern id="ground" patternUnits="userSpaceOnUse" width="20" height="10">
      <path d="M0,10 L10,0 M10,10 L20,0" stroke="#666" stroke-width="0.5"/>
    </pattern>

    <!-- Kupfer-Gradient NUR fuer Kuppeln -->
    <linearGradient id="copper" x1="0%" y1="0%" x2="0%" y2="100%">
      <stop offset="0%" style="stop-color:#7CB9A5"/>
      <stop offset="100%" style="stop-color:#4A8A77"/>
    </linearGradient>
  </defs>

  <!-- Hintergrund -->
  <rect width="700" height="480" fill="#FFFFFF"/>
  
  <!-- Titel -->
  <text x="50" y="30" font-family="Arial" font-size="16" font-weight="bold">GRUNDRISS - Kunstmuseum Bern</text>
  <text x="50" y="45" font-family="Arial" font-size="10">Hodlerstrasse 8, 3011 Bern - EGID: 2247274</text>

  <!-- Zone 1: Altbau (Hauptgebaeude) -->
  <rect x="200" y="100" width="120" height="150" fill="url(#hatch)" stroke="#333" stroke-width="2"/>
  <text x="255" y="180" font-family="Arial" font-size="10" text-anchor="middle" fill="#000">Altbau</text>
  <text x="255" y="195" font-family="Arial" font-size="8" text-anchor="middle" fill="#666">H: 18.0m</text>

  <!-- Zone 2: Neubau (Stettler) -->
  <rect x="320" y="120" width="100" height="110" fill="url(#hatch)" stroke="#333" stroke-width="2"/>
  <text x="370" y="175" font-family="Arial" font-size="10" text-anchor="middle" fill="#000">Neubau</text>
  <text x="370" y="190" font-family="Arial" font-size="8" text-anchor="middle" fill="#666">H: 15.0m</text>

  <!-- Zone 3: Erweiterung (Anbau) -->
  <rect x="240" y="250" width="80" height="60" fill="url(#hatch)" stroke="#333" stroke-width="2"/>
  <text x="280" y="285" font-family="Arial" font-size="10" text-anchor="middle" fill="#000">Erweiterung</text>
  <text x="280" y="300" font-family="Arial" font-size="8" text-anchor="middle" fill="#666">H: 10.0m</text>

  <!-- Geruestzone (1m Abstand) -->
  <rect x="190" y="90" width="240" height="230" fill="none" stroke="#0066CC" stroke-width="1" stroke-dasharray="5,5"/>
  <text x="195" y="85" font-family="Arial" font-size="8" fill="#0066CC">Gerüstzone</text>

  <!-- Fassadenlaengen -->
  <!-- NO Fassade -->
  <line x1="200" y1="95" x2="420" y2="95" stroke="#666" stroke-width="1"/>
  <text x="310" y="90" font-family="Arial" font-size="8" text-anchor="middle" fill="#666">Fassade NO - 36.9m</text>

  <!-- SO Fassade -->
  <line x1="425" y1="100" x2="425" y2="310" stroke="#666" stroke-width="1"/>
  <text x="435" y="205" font-family="Arial" font-size="8" fill="#666">SO - 32.3m</text>

  <!-- SW Fassade -->
  <line x1="200" y1="315" x2="420" y2="315" stroke="#666" stroke-width="1"/>
  <text x="310" y="330" font-family="Arial" font-size="8" text-anchor="middle" fill="#666">SW - 36.9m</text>

  <!-- NW Fassade -->
  <line x1="195" y1="100" x2="195" y2="310" stroke="#666" stroke-width="1"/>
  <text x="175" y="205" font-family="Arial" font-size="8" fill="#666" transform="rotate(-90, 175, 205)">NW - 32.3m</text>

  <!-- Geruest-Zugaenge -->
  <circle cx="395" cy="100" r="3" fill="#CC0000"/>
  <text x="400" y="105" font-family="Arial" font-size="8" fill="#CC0000">Z1</text>

  <circle cx="420" cy="300" r="3" fill="#CC0000"/>
  <text x="425" y="305" font-family="Arial" font-size="8" fill="#CC0000">Z2</text>

  <circle cx="200" cy="105" r="3" fill="#CC0000"/>
  <text x="175" y="110" font-family="Arial" font-size="8" fill="#CC0000">Z3</text>

  <!-- Nordpfeil -->
  <g transform="translate(600, 120)">
    <line x1="0" y1="0" x2="0" y2="-25" stroke="#333" stroke-width="2" marker-end="url(#arrow)"/>
    <text x="5" y="-10" font-family="Arial" font-size="10" fill="#333">N</text>
    <defs>
      <marker id="arrow" markerWidth="10" markerHeight="10" refX="5" refY="3" orient="auto">
        <polygon points="0 0, 10 3, 0 6" fill="#333"/>
      </marker>
    </defs>
  </g>

  <!-- Massstab -->
  <g transform="translate(50, 400)">
    <line x1="0" y1="0" x2="50" y2="0" stroke="#333" stroke-width="2"/>
    <line x1="0" y1="-3" x2="0" y2="3" stroke="#333" stroke-width="1"/>
    <line x1="50" y1="-3" x2="50" y2="3" stroke="#333" stroke-width="1"/>
    <text x="25" y="15" font-family="Arial" font-size="8" text-anchor="middle">10m</text>
    <text x="25" y="-10" font-family="Arial" font-size="8" text-anchor="middle">Massstab 1:500</text>
  </g>

  <!-- Legende -->
  <g transform="translate(500, 200)">
    <text x="0" y="0" font-family="Arial" font-size="12" font-weight="bold">Legende</text>
    
    <rect x="0" y="10" width="15" height="10" fill="url(#hatch)" stroke="#333"/>
    <text x="20" y="20" font-family="Arial" font-size="9">Gebäudemauern</text>
    
    <line x1="0" y1="30" x2="15" y2="30" stroke="#0066CC" stroke-dasharray="3,3"/>
    <text x="20" y="35" font-family="Arial" font-size="9">Gerüstzone</text>
    
    <circle cx="7" cy="45" r="2" fill="#CC0000"/>
    <text x="20" y="50" font-family="Arial" font-size="9">Gerüst-Zugang</text>
    
    <text x="0" y="70" font-family="Arial" font-size="8" fill="#666">Grundfläche: 1190 m²</text>
    <text x="0" y="85" font-family="Arial" font-size="8" fill="#666">Umfang: 145.2 m</text>
    <text x="0" y="100" font-family="Arial" font-size="8" fill="#666">Terrain: 531.1 m ü.M.</text>
  </g>

  <!-- Koordinaten -->
  <text x="50" y="460" font-family="Arial" font-size="8" fill="#666">LV95: E 600391, N 199983</text>
  <text x="300" y="460" font-family="Arial" font-size="8" fill="#666">Baujahr: 1879 - Neorenaissance/Moderne</text>
</svg>