<svg viewBox="0 0 700 480" xmlns="http://www.w3.org/2000/svg">
<defs>
  <!-- LOCKERE Schraffur fuer Aussenflaechen -->
  <pattern id="hatch" patternUnits="userSpaceOnUse" width="8" height="8">
    <path d="M0,0 l8,8" stroke="#999" stroke-width="0.5"/>
  </pattern>

  <!-- DICHTE Schraffur fuer Schnittflaechen -->
  <pattern id="cut-hatch" patternUnits="userSpaceOnUse" width="4" height="4">
    <path d="M0,0 l4,4 M0,4 l4,-4" stroke="#666" stroke-width="0.8"/>
  </pattern>

  <!-- Terrain/Boden -->
  <pattern id="ground" patternUnits="userSpaceOnUse" width="20" height="10">
    <path d="M0,10 L10,0 M10,10 L20,0" stroke="#666" stroke-width="0.5"/>
  </pattern>

  <!-- Kupfer-Gradient NUR fuer Kuppeln -->
  <linearGradient id="copper" x1="0%" y1="0%" x2="0%" y2="100%">
    <stop offset="0%" style="stop-color:#7CB9A5"/>
    <stop offset="100%" style="stop-color:#4A8A77"/>
  </linearGradient>
</defs>

<!-- Hintergrund -->
<rect width="700" height="480" fill="#FFFFFF"/>

<!-- Titel -->
<text x="350" y="25" text-anchor="middle" font-family="Arial" font-size="16" font-weight="bold" fill="#000">
  GRUNDRISS - Kirche St. Peter und Paul
</text>
<text x="350" y="45" text-anchor="middle" font-family="Arial" font-size="12" fill="#666">
  Rathausgasse 2, 3011 Bern | EGID: 191821074
</text>

<!-- Geruest-Umriss (1m Abstand) -->
<rect x="150" y="90" width="400" height="280" fill="none" stroke="#0066CC" stroke-width="2" stroke-dasharray="5,5"/>

<!-- Zone 4: Westturm (54.6m) -->
<rect x="160" y="100" width="60" height="40" fill="url(#hatch)" stroke="#000" stroke-width="2"/>
<text x="190" y="125" text-anchor="middle" font-family="Arial" font-size="10" font-weight="bold" fill="#000">TURM</text>
<text x="190" y="135" text-anchor="middle" font-family="Arial" font-size="8" fill="#000">54.6m</text>

<!-- Zone 1: Kirchenschiff (25.0m) -->
<rect x="220" y="100" width="200" height="60" fill="url(#hatch)" stroke="#000" stroke-width="2"/>
<text x="320" y="125" text-anchor="middle" font-family="Arial" font-size="12" font-weight="bold" fill="#000">KIRCHENSCHIFF</text>
<text x="320" y="140" text-anchor="middle" font-family="Arial" font-size="10" fill="#000">25.0m</text>

<!-- Zone 2: Seitenschiffe links (12.0m) -->
<rect x="220" y="160" width="200" height="40" fill="url(#hatch)" stroke="#000" stroke-width="1.5"/>
<text x="320" y="175" text-anchor="middle" font-family="Arial" font-size="10" fill="#000">SEITENSCHIFF</text>
<text x="320" y="185" text-anchor="middle" font-family="Arial" font-size="8" fill="#000">12.0m</text>

<!-- Zone 2: Seitenschiffe rechts (12.0m) -->
<rect x="220" y="60" width="200" height="40" fill="url(#hatch)" stroke="#000" stroke-width="1.5"/>
<text x="320" y="75" text-anchor="middle" font-family="Arial" font-size="10" fill="#000">SEITENSCHIFF</text>
<text x="320" y="85" text-anchor="middle" font-family="Arial" font-size="8" fill="#000">12.0m</text>

<!-- Zone 3: Chor (18.0m) -->
<rect x="420" y="100" width="120" height="60" fill="url(#hatch)" stroke="#000" stroke-width="2"/>
<text x="480" y="125" text-anchor="middle" font-family="Arial" font-size="11" font-weight="bold" fill="#000">CHOR</text>
<text x="480" y="140" text-anchor="middle" font-family="Arial" font-size="9" fill="#000">18.0m</text>

<!-- Geruest-Staender -->
<circle cx="160" cy="100" r="3" fill="#0066CC"/>
<circle cx="220" cy="100" r="3" fill="#0066CC"/>
<circle cx="320" cy="100" r="3" fill="#0066CC"/>
<circle cx="420" cy="100" r="3" fill="#0066CC"/>
<circle cx="540" cy="100" r="3" fill="#0066CC"/>

<circle cx="160" cy="160" r="3" fill="#0066CC"/>
<circle cx="220" cy="160" r="3" fill="#0066CC"/>
<circle cx="320" cy="160" r="3" fill="#0066CC"/>
<circle cx="420" cy="160" r="3" fill="#0066CC"/>
<circle cx="540" cy="160" r="3" fill="#0066CC"/>

<circle cx="160" cy="200" r="3" fill="#0066CC"/>
<circle cx="220" cy="200" r="3" fill="#0066CC"/>
<circle cx="320" cy="200" r="3" fill="#0066CC"/>
<circle cx="420" cy="200" r="3" fill="#0066CC"/>
<circle cx="540" cy="200" r="3" fill="#0066CC"/>

<!-- Geruest-Zugaenge -->
<rect x="535" y="120" width="15" height="20" fill="#00CC00" stroke="#000" stroke-width="1"/>
<text x="547" y="132" text-anchor="middle" font-family="Arial" font-size="8" font-weight="bold" fill="#000">Z1</text>
<text x="547" y="145" text-anchor="middle" font-family="Arial" font-size="6" fill="#000">OST</text>

<rect x="500" y="195" width="20" height="15" fill="#00CC00" stroke="#000" stroke-width="1"/>
<text x="510" y="205" text-anchor="middle" font-family="Arial" font-size="8" font-weight="bold" fill="#000">Z2</text>
<text x="510" y="215" text-anchor="middle" font-family="Arial" font-size="6" fill="#000">SO</text>

<rect x="280" y="85" width="20" height="15" fill="#00CC00" stroke="#000" stroke-width="1"/>
<text x="290" y="95" text-anchor="middle" font-family="Arial" font-size="8" font-weight="bold" fill="#000">Z3</text>
<text x="290" y="105" text-anchor="middle" font-family="Arial" font-size="6" fill="#000">N</text>

<rect x="140" y="150" width="15" height="20" fill="#00CC00" stroke="#000" stroke-width="1"/>
<text x="147" y="162" text-anchor="middle" font-family="Arial" font-size="8" font-weight="bold" fill="#000">Z4</text>
<text x="147" y="175" text-anchor="middle" font-family="Arial" font-size="6" fill="#000">W</text>

<!-- Fassadenlaengen -->
<line x1="160" y1="220" x2="220" y2="220" stroke="#000" stroke-width="1"/>
<text x="190" y="235" text-anchor="middle" font-family="Arial" font-size="9" fill="#000">12.0m</text>

<line x1="220" y1="220" x2="420" y2="220" stroke="#000" stroke-width="1"/>
<text x="320" y="235" text-anchor="middle" font-family="Arial" font-size="9" fill="#000">40.0m</text>

<line x1="420" y1="220" x2="540" y2="220" stroke="#000" stroke-width="1"/>
<text x="480" y="235" text-anchor="middle" font-family="Arial" font-size="9" fill="#000">24.0m</text>

<line x1="550" y1="100" x2="550" y2="160" stroke="#000" stroke-width="1"/>
<text x="565" y="130" font-family="Arial" font-size="9" fill="#000">12.0m</text>

<!-- Nordpfeil -->
<g transform="translate(600, 120)">
  <line x1="0" y1="0" x2="0" y2="-30" stroke="#000" stroke-width="2" marker-end="url(#arrow)"/>
  <text x="10" y="-10" font-family="Arial" font-size="12" font-weight="bold" fill="#000">N</text>
</g>

<defs>
  <marker id="arrow" markerWidth="10" markerHeight="10" refX="0" refY="3" orient="auto" markerUnits="strokeWidth">
    <path d="M0,0 L0,6 L9,3 z" fill="#000"/>
  </marker>
</defs>

<!-- Massstab -->
<g transform="translate(50, 400)">
  <line x1="0" y1="0" x2="50" y2="0" stroke="#000" stroke-width="2"/>
  <line x1="0" y1="-5" x2="0" y2="5" stroke="#000" stroke-width="1"/>
  <line x1="50" y1="-5" x2="50" y2="5" stroke="#000" stroke-width="1"/>
  <text x="25" y="20" text-anchor="middle" font-family="Arial" font-size="10" fill="#000">10m</text>
</g>

<!-- Gebaeudedaten -->
<text x="50" y="320" font-family="Arial" font-size="10" font-weight="bold" fill="#000">GEBÄUDEDATEN:</text>
<text x="50" y="335" font-family="Arial" font-size="9" fill="#000">Grundfläche: 1099 m²</text>
<text x="50" y="350" font-family="Arial" font-size="9" fill="#000">Umfang: 168.1 m</text>
<text x="50" y="365" font-family="Arial" font-size="9" fill="#000">Bounding Box: 48.2m × 29.1m</text>

<!-- Legende -->
<text x="50" y="450" font-family="Arial" font-size="10" font-weight="bold" fill="#000">LEGENDE:</text>
<rect x="120" y="442" width="12" height="8" fill="url(#hatch)" stroke="#000" stroke-width="0.5"/>
<text x="140" y="449" font-family="Arial" font-size="9" fill="#000">Gebäude</text>
<circle cx="200" cy="446" r="3" fill="#0066CC"/>
<text x="210" y="449" font-family="Arial" font-size="9" fill="#000">Gerüst</text>
<rect x="250" y="442" width="12" height="8" fill="#00CC00" stroke="#000" stroke-width="0.5"/>
<text x="270" y="449" font-family="Arial" font-size="9" fill="#000">Zugang</text>

</svg>