<?xml version="1.0" encoding="UTF-8"?>
<svg xmlns="http://www.w3.org/2000/svg" viewBox="0 0 600 500" width="600" height="500">
  <title>Grundriss - Rathausgasse 2 3011 Bern</title>
  <rect width="600" height="500" fill="#f8f9fa"/>

  <text x="300.0" y="25" text-anchor="middle" font-family="Arial, sans-serif" font-size="14" font-weight="bold" fill="#333">
    Grundriss mit Gerüstposition (46 Seiten)
  </text>
  <text x="300.0" y="42" text-anchor="middle" font-family="Arial" font-size="10" fill="#666">
    Rathausgasse 2 3011 Bern
  </text>

  <!-- Gerüst-Zone -->
  <rect x="93.28022139983742" y="142.1181549822544"
        width="303.4395571976961" height="195.7636900368057"
        fill="#fff3cd" stroke="#ffc107" stroke-width="1.5" rx="2"/>

  <!-- Gebäude-Polygon Hintergrund -->
  <polygon points="108.9,192.5 138.9,190.4 140.4,173.2 178.1,170.2 177.6,161.7 185.2,161.2 185.8,169.7 226.5,166.8 226.0,158.3 233.6,157.8 234.2,166.2 258.3,161.3 259.6,181.8 276.6,180.7 276.1,172.2 282.2,171.8 282.7,180.2 299.6,179.1 299.0,170.6 305.1,170.2 305.7,178.7 325.8,177.3 325.3,169.0 348.1,160.5 366.8,174.8 365.5,202.0 378.1,210.9 381.1,249.1 369.5,259.8 374.9,286.7 358.0,302.9 334.5,297.3 333.9,289.5 312.8,291.1 308.0,299.1 307.4,291.5 290.0,292.7 290.4,300.3 284.5,293.0 266.9,294.2 268.1,314.9 164.4,322.2 146.9,316.5 146.6,302.7 113.7,304.9 109.1,203.0 108.9,192.5"
           fill="#e0e0e0" stroke="none"/>
  <!-- Klickbare Fassaden-Segmente -->
  <style>
    .facade-segment { cursor: pointer; transition: stroke 0.2s, stroke-width 0.2s; }
    .facade-segment:hover { stroke: #2563eb; stroke-width: 5; }
    .facade-segment.selected { stroke: #dc2626; stroke-width: 5; }
  </style>
  <line x1="108.9" y1="192.5" x2="138.9" y2="190.4"
        class="facade-segment"
        data-facade-index="0"
        data-facade-length="5.31"
        data-facade-direction="O"
        stroke="#333333" stroke-width="3" stroke-linecap="round"/>
  <line x1="138.9" y1="190.4" x2="140.4" y2="173.2"
        class="facade-segment"
        data-facade-index="1"
        data-facade-length="3.06"
        data-facade-direction="N"
        stroke="#333333" stroke-width="3" stroke-linecap="round"/>
  <line x1="140.4" y1="173.2" x2="178.1" y2="170.2"
        class="facade-segment"
        data-facade-index="2"
        data-facade-length="6.71"
        data-facade-direction="O"
        stroke="#333333" stroke-width="3" stroke-linecap="round"/>
  <line x1="178.1" y1="170.2" x2="177.6" y2="161.7"
        class="facade-segment"
        data-facade-index="3"
        data-facade-length="1.51"
        data-facade-direction="N"
        stroke="#333333" stroke-width="3" stroke-linecap="round"/>
  <line x1="177.6" y1="161.7" x2="185.2" y2="161.2"
        class="facade-segment"
        data-facade-index="4"
        data-facade-length="1.34"
        data-facade-direction="O"
        stroke="#333333" stroke-width="3" stroke-linecap="round"/>
  <line x1="185.2" y1="161.2" x2="185.8" y2="169.7"
        class="facade-segment"
        data-facade-index="5"
        data-facade-length="1.51"
        data-facade-direction="S"
        stroke="#333333" stroke-width="3" stroke-linecap="round"/>
  <line x1="185.8" y1="169.7" x2="226.5" y2="166.8"
        class="facade-segment"
        data-facade-index="6"
        data-facade-length="7.23"
        data-facade-direction="O"
        stroke="#333333" stroke-width="3" stroke-linecap="round"/>
  <line x1="226.5" y1="166.8" x2="226.0" y2="158.3"
        class="facade-segment"
        data-facade-index="7"
        data-facade-length="1.50"
        data-facade-direction="N"
        stroke="#333333" stroke-width="3" stroke-linecap="round"/>
  <line x1="226.0" y1="158.3" x2="233.6" y2="157.8"
        class="facade-segment"
        data-facade-index="8"
        data-facade-length="1.34"
        data-facade-direction="O"
        stroke="#333333" stroke-width="3" stroke-linecap="round"/>
  <line x1="233.6" y1="157.8" x2="234.2" y2="166.2"
        class="facade-segment"
        data-facade-index="9"
        data-facade-length="1.50"
        data-facade-direction="S"
        stroke="#333333" stroke-width="3" stroke-linecap="round"/>
  <line x1="234.2" y1="166.2" x2="258.3" y2="161.3"
        class="facade-segment"
        data-facade-index="10"
        data-facade-length="4.35"
        data-facade-direction="O"
        stroke="#333333" stroke-width="3" stroke-linecap="round"/>
  <line x1="258.3" y1="161.3" x2="259.6" y2="181.8"
        class="facade-segment"
        data-facade-index="11"
        data-facade-length="3.63"
        data-facade-direction="S"
        stroke="#333333" stroke-width="3" stroke-linecap="round"/>
  <line x1="259.6" y1="181.8" x2="276.6" y2="180.7"
        class="facade-segment"
        data-facade-index="12"
        data-facade-length="3.02"
        data-facade-direction="O"
        stroke="#333333" stroke-width="3" stroke-linecap="round"/>
  <line x1="276.6" y1="180.7" x2="276.1" y2="172.2"
        class="facade-segment"
        data-facade-index="13"
        data-facade-length="1.50"
        data-facade-direction="N"
        stroke="#333333" stroke-width="3" stroke-linecap="round"/>
  <line x1="276.1" y1="172.2" x2="282.2" y2="171.8"
        class="facade-segment"
        data-facade-index="14"
        data-facade-length="1.07"
        data-facade-direction="O"
        stroke="#333333" stroke-width="3" stroke-linecap="round"/>
  <line x1="282.2" y1="171.8" x2="282.7" y2="180.2"
        class="facade-segment"
        data-facade-index="15"
        data-facade-length="1.50"
        data-facade-direction="S"
        stroke="#333333" stroke-width="3" stroke-linecap="round"/>
  <line x1="282.7" y1="180.2" x2="299.6" y2="179.1"
        class="facade-segment"
        data-facade-index="16"
        data-facade-length="2.99"
        data-facade-direction="O"
        stroke="#333333" stroke-width="3" stroke-linecap="round"/>
  <line x1="299.6" y1="179.1" x2="299.0" y2="170.6"
        class="facade-segment"
        data-facade-index="17"
        data-facade-length="1.50"
        data-facade-direction="N"
        stroke="#333333" stroke-width="3" stroke-linecap="round"/>
  <line x1="299.0" y1="170.6" x2="305.1" y2="170.2"
        class="facade-segment"
        data-facade-index="18"
        data-facade-length="1.08"
        data-facade-direction="O"
        stroke="#333333" stroke-width="3" stroke-linecap="round"/>
  <line x1="305.1" y1="170.2" x2="305.7" y2="178.7"
        class="facade-segment"
        data-facade-index="19"
        data-facade-length="1.50"
        data-facade-direction="S"
        stroke="#333333" stroke-width="3" stroke-linecap="round"/>
  <line x1="305.7" y1="178.7" x2="325.8" y2="177.3"
        class="facade-segment"
        data-facade-index="20"
        data-facade-length="3.56"
        data-facade-direction="O"
        stroke="#333333" stroke-width="3" stroke-linecap="round"/>
  <line x1="325.8" y1="177.3" x2="325.3" y2="169.0"
        class="facade-segment"
        data-facade-index="21"
        data-facade-length="1.48"
        data-facade-direction="N"
        stroke="#333333" stroke-width="3" stroke-linecap="round"/>
  <line x1="325.3" y1="169.0" x2="348.1" y2="160.5"
        class="facade-segment"
        data-facade-index="22"
        data-facade-length="4.31"
        data-facade-direction="O"
        stroke="#333333" stroke-width="3" stroke-linecap="round"/>
  <line x1="348.1" y1="160.5" x2="366.8" y2="174.8"
        class="facade-segment"
        data-facade-index="23"
        data-facade-length="4.18"
        data-facade-direction="SO"
        stroke="#333333" stroke-width="3" stroke-linecap="round"/>
  <line x1="366.8" y1="174.8" x2="365.5" y2="202.0"
        class="facade-segment"
        data-facade-index="24"
        data-facade-length="4.83"
        data-facade-direction="S"
        stroke="#333333" stroke-width="3" stroke-linecap="round"/>
  <line x1="365.5" y1="202.0" x2="378.1" y2="210.9"
        class="facade-segment"
        data-facade-index="25"
        data-facade-length="2.73"
        data-facade-direction="SO"
        stroke="#333333" stroke-width="3" stroke-linecap="round"/>
  <line x1="378.1" y1="210.9" x2="381.1" y2="249.1"
        class="facade-segment"
        data-facade-index="26"
        data-facade-length="6.79"
        data-facade-direction="S"
        stroke="#333333" stroke-width="3" stroke-linecap="round"/>
  <line x1="381.1" y1="249.1" x2="369.5" y2="259.8"
        class="facade-segment"
        data-facade-index="27"
        data-facade-length="2.80"
        data-facade-direction="SW"
        stroke="#333333" stroke-width="3" stroke-linecap="round"/>
  <line x1="369.5" y1="259.8" x2="374.9" y2="286.7"
        class="facade-segment"
        data-facade-index="28"
        data-facade-length="4.85"
        data-facade-direction="S"
        stroke="#333333" stroke-width="3" stroke-linecap="round"/>
  <line x1="374.9" y1="286.7" x2="358.0" y2="302.9"
        class="facade-segment"
        data-facade-index="29"
        data-facade-length="4.16"
        data-facade-direction="SW"
        stroke="#333333" stroke-width="3" stroke-linecap="round"/>
  <line x1="358.0" y1="302.9" x2="334.5" y2="297.3"
        class="facade-segment"
        data-facade-index="30"
        data-facade-length="4.28"
        data-facade-direction="W"
        stroke="#333333" stroke-width="3" stroke-linecap="round"/>
  <line x1="334.5" y1="297.3" x2="333.9" y2="289.5"
        class="facade-segment"
        data-facade-index="31"
        data-facade-length="1.38"
        data-facade-direction="N"
        stroke="#333333" stroke-width="3" stroke-linecap="round"/>
  <line x1="333.9" y1="289.5" x2="312.8" y2="291.1"
        class="facade-segment"
        data-facade-index="32"
        data-facade-length="3.76"
        data-facade-direction="W"
        stroke="#333333" stroke-width="3" stroke-linecap="round"/>
  <line x1="312.8" y1="291.1" x2="308.0" y2="299.1"
        class="facade-segment"
        data-facade-index="33"
        data-facade-length="1.65"
        data-facade-direction="SW"
        stroke="#333333" stroke-width="3" stroke-linecap="round"/>
  <line x1="308.0" y1="299.1" x2="307.4" y2="291.5"
        class="facade-segment"
        data-facade-index="34"
        data-facade-length="1.35"
        data-facade-direction="N"
        stroke="#333333" stroke-width="3" stroke-linecap="round"/>
  <line x1="307.4" y1="291.5" x2="290.0" y2="292.7"
        class="facade-segment"
        data-facade-index="35"
        data-facade-length="3.10"
        data-facade-direction="W"
        stroke="#333333" stroke-width="3" stroke-linecap="round"/>
  <line x1="290.0" y1="292.7" x2="290.4" y2="300.3"
        class="facade-segment"
        data-facade-index="36"
        data-facade-length="1.36"
        data-facade-direction="S"
        stroke="#333333" stroke-width="3" stroke-linecap="round"/>
  <line x1="290.4" y1="300.3" x2="284.5" y2="293.0"
        class="facade-segment"
        data-facade-index="37"
        data-facade-length="1.67"
        data-facade-direction="NW"
        stroke="#333333" stroke-width="3" stroke-linecap="round"/>
  <line x1="284.5" y1="293.0" x2="266.9" y2="294.2"
        class="facade-segment"
        data-facade-index="38"
        data-facade-length="3.13"
        data-facade-direction="W"
        stroke="#333333" stroke-width="3" stroke-linecap="round"/>
  <line x1="266.9" y1="294.2" x2="268.1" y2="314.9"
        class="facade-segment"
        data-facade-index="39"
        data-facade-length="3.66"
        data-facade-direction="S"
        stroke="#333333" stroke-width="3" stroke-linecap="round"/>
  <line x1="268.1" y1="314.9" x2="164.4" y2="322.2"
        class="facade-segment"
        data-facade-index="40"
        data-facade-length="18.43"
        data-facade-direction="W"
        stroke="#333333" stroke-width="3" stroke-linecap="round"/>
  <line x1="164.4" y1="322.2" x2="146.9" y2="316.5"
        class="facade-segment"
        data-facade-index="41"
        data-facade-length="3.26"
        data-facade-direction="W"
        stroke="#333333" stroke-width="3" stroke-linecap="round"/>
  <line x1="146.9" y1="316.5" x2="146.6" y2="302.7"
        class="facade-segment"
        data-facade-index="42"
        data-facade-length="2.44"
        data-facade-direction="N"
        stroke="#333333" stroke-width="3" stroke-linecap="round"/>
  <line x1="146.6" y1="302.7" x2="113.7" y2="304.9"
        class="facade-segment"
        data-facade-index="43"
        data-facade-length="5.85"
        data-facade-direction="W"
        stroke="#333333" stroke-width="3" stroke-linecap="round"/>
  <line x1="113.7" y1="304.9" x2="109.1" y2="203.0"
        class="facade-segment"
        data-facade-index="44"
        data-facade-length="18.07"
        data-facade-direction="N"
        stroke="#333333" stroke-width="3" stroke-linecap="round"/>
  <line x1="109.1" y1="203.0" x2="108.9" y2="192.5"
        class="facade-segment"
        data-facade-index="45"
        data-facade-length="1.87"
        data-facade-direction="N"
        stroke="#333333" stroke-width="3" stroke-linecap="round"/>
  <!-- Fassaden-Beschriftungen -->
  <text x="123.3" y="183.0" text-anchor="middle" font-family="Arial" font-size="9" font-weight="bold" fill="#333333" data-label-for="0">[1] O</text>
  <text x="123.3" y="193.0" text-anchor="middle" font-family="Arial" font-size="8" fill="#666666">5.3m</text>
  <text x="131.2" y="181.1" text-anchor="middle" font-family="Arial" font-size="9" font-weight="bold" fill="#333333" data-label-for="1">[2] N</text>
  <text x="131.2" y="191.1" text-anchor="middle" font-family="Arial" font-size="8" fill="#666666">3.1m</text>
  <text x="158.6" y="163.3" text-anchor="middle" font-family="Arial" font-size="9" font-weight="bold" fill="#333333" data-label-for="2">[3] O</text>
  <text x="158.6" y="173.3" text-anchor="middle" font-family="Arial" font-size="8" fill="#666666">6.7m</text>
  <text x="169.4" y="166.5" text-anchor="middle" font-family="Arial" font-size="9" font-weight="bold" fill="#333333" data-label-for="3">[4] N</text>
  <text x="169.4" y="176.5" text-anchor="middle" font-family="Arial" font-size="8" fill="#666666">1.5m</text>
  <text x="180.8" y="153.0" text-anchor="middle" font-family="Arial" font-size="9" font-weight="bold" fill="#333333" data-label-for="4">[5] O</text>
  <text x="180.8" y="163.0" text-anchor="middle" font-family="Arial" font-size="8" fill="#666666">1.3m</text>
  <text x="193.9" y="164.8" text-anchor="middle" font-family="Arial" font-size="9" font-weight="bold" fill="#333333" data-label-for="5">[6] S</text>
  <text x="193.9" y="174.8" text-anchor="middle" font-family="Arial" font-size="8" fill="#666666">1.5m</text>
  <text x="205.5" y="159.8" text-anchor="middle" font-family="Arial" font-size="9" font-weight="bold" fill="#333333" data-label-for="6">[7] O</text>
  <text x="205.5" y="169.8" text-anchor="middle" font-family="Arial" font-size="8" fill="#666666">7.2m</text>
  <text x="217.8" y="163.0" text-anchor="middle" font-family="Arial" font-size="9" font-weight="bold" fill="#333333" data-label-for="7">[8] N</text>
  <text x="217.8" y="173.0" text-anchor="middle" font-family="Arial" font-size="8" fill="#666666">1.5m</text>
  <text x="229.2" y="149.6" text-anchor="middle" font-family="Arial" font-size="9" font-weight="bold" fill="#333333" data-label-for="8">[9] O</text>
  <text x="229.2" y="159.6" text-anchor="middle" font-family="Arial" font-size="8" fill="#666666">1.3m</text>
  <text x="242.4" y="161.4" text-anchor="middle" font-family="Arial" font-size="9" font-weight="bold" fill="#333333" data-label-for="9">[10] S</text>
  <text x="242.4" y="171.4" text-anchor="middle" font-family="Arial" font-size="8" fill="#666666">1.5m</text>
  <text x="244.5" y="155.5" text-anchor="middle" font-family="Arial" font-size="9" font-weight="bold" fill="#333333" data-label-for="10">[11] O</text>
  <text x="244.5" y="165.5" text-anchor="middle" font-family="Arial" font-size="8" fill="#666666">4.3m</text>
  <text x="267.4" y="171.0" text-anchor="middle" font-family="Arial" font-size="9" font-weight="bold" fill="#333333" data-label-for="11">[12] S</text>
  <text x="267.4" y="181.0" text-anchor="middle" font-family="Arial" font-size="8" fill="#666666">3.6m</text>
  <text x="267.6" y="172.8" text-anchor="middle" font-family="Arial" font-size="9" font-weight="bold" fill="#333333" data-label-for="12">[13] O</text>
  <text x="267.6" y="182.8" text-anchor="middle" font-family="Arial" font-size="8" fill="#666666">3.0m</text>
  <text x="267.9" y="176.9" text-anchor="middle" font-family="Arial" font-size="9" font-weight="bold" fill="#333333" data-label-for="13">[14] N</text>
  <text x="267.9" y="186.9" text-anchor="middle" font-family="Arial" font-size="8" fill="#666666">1.5m</text>
  <text x="278.6" y="163.5" text-anchor="middle" font-family="Arial" font-size="9" font-weight="bold" fill="#333333" data-label-for="14">[15] O</text>
  <text x="278.6" y="173.5" text-anchor="middle" font-family="Arial" font-size="8" fill="#666666">1.1m</text>
  <text x="290.9" y="175.4" text-anchor="middle" font-family="Arial" font-size="9" font-weight="bold" fill="#333333" data-label-for="15">[16] S</text>
  <text x="290.9" y="185.4" text-anchor="middle" font-family="Arial" font-size="8" fill="#666666">1.5m</text>
  <text x="290.6" y="171.2" text-anchor="middle" font-family="Arial" font-size="9" font-weight="bold" fill="#333333" data-label-for="16">[17] O</text>
  <text x="290.6" y="181.2" text-anchor="middle" font-family="Arial" font-size="8" fill="#666666">3.0m</text>
  <text x="290.9" y="175.4" text-anchor="middle" font-family="Arial" font-size="9" font-weight="bold" fill="#333333" data-label-for="17">[18] N</text>
  <text x="290.9" y="185.4" text-anchor="middle" font-family="Arial" font-size="8" fill="#666666">1.5m</text>
  <text x="301.5" y="162.0" text-anchor="middle" font-family="Arial" font-size="9" font-weight="bold" fill="#333333" data-label-for="18">[19] O</text>
  <text x="301.5" y="172.0" text-anchor="middle" font-family="Arial" font-size="8" fill="#666666">1.1m</text>
  <text x="313.9" y="173.8" text-anchor="middle" font-family="Arial" font-size="9" font-weight="bold" fill="#333333" data-label-for="19">[20] S</text>
  <text x="313.9" y="183.8" text-anchor="middle" font-family="Arial" font-size="8" fill="#666666">1.5m</text>
  <text x="315.2" y="169.6" text-anchor="middle" font-family="Arial" font-size="9" font-weight="bold" fill="#333333" data-label-for="20">[21] O</text>
  <text x="315.2" y="179.6" text-anchor="middle" font-family="Arial" font-size="8" fill="#666666">3.6m</text>
  <text x="317.1" y="173.6" text-anchor="middle" font-family="Arial" font-size="9" font-weight="bold" fill="#333333" data-label-for="21">[22] N</text>
  <text x="317.1" y="183.6" text-anchor="middle" font-family="Arial" font-size="8" fill="#666666">1.5m</text>
  <text x="333.7" y="156.8" text-anchor="middle" font-family="Arial" font-size="9" font-weight="bold" fill="#333333" data-label-for="22">[23] O</text>
  <text x="333.7" y="166.8" text-anchor="middle" font-family="Arial" font-size="8" fill="#666666">4.3m</text>
  <text x="362.6" y="160.9" text-anchor="middle" font-family="Arial" font-size="9" font-weight="bold" fill="#333333" data-label-for="23">[24] SO</text>
  <text x="362.6" y="170.9" text-anchor="middle" font-family="Arial" font-size="8" fill="#666666">4.2m</text>
  <text x="374.6" y="188.9" text-anchor="middle" font-family="Arial" font-size="9" font-weight="bold" fill="#333333" data-label-for="24">[25] S</text>
  <text x="374.6" y="198.9" text-anchor="middle" font-family="Arial" font-size="8" fill="#666666">4.8m</text>
  <text x="376.6" y="199.5" text-anchor="middle" font-family="Arial" font-size="9" font-weight="bold" fill="#333333" data-label-for="25">[26] SO</text>
  <text x="376.6" y="209.5" text-anchor="middle" font-family="Arial" font-size="8" fill="#666666">2.7m</text>
  <text x="388.0" y="229.3" text-anchor="middle" font-family="Arial" font-size="9" font-weight="bold" fill="#333333" data-label-for="26">[27] S</text>
  <text x="388.0" y="239.3" text-anchor="middle" font-family="Arial" font-size="8" fill="#666666">6.8m</text>
  <text x="381.0" y="260.7" text-anchor="middle" font-family="Arial" font-size="9" font-weight="bold" fill="#333333" data-label-for="27">[28] SW</text>
  <text x="381.0" y="270.7" text-anchor="middle" font-family="Arial" font-size="8" fill="#666666">2.8m</text>
  <text x="380.5" y="271.6" text-anchor="middle" font-family="Arial" font-size="9" font-weight="bold" fill="#333333" data-label-for="28">[29] S</text>
  <text x="380.5" y="281.6" text-anchor="middle" font-family="Arial" font-size="8" fill="#666666">4.8m</text>
  <text x="372.3" y="300.9" text-anchor="middle" font-family="Arial" font-size="9" font-weight="bold" fill="#333333" data-label-for="29">[30] SW</text>
  <text x="372.3" y="310.9" text-anchor="middle" font-family="Arial" font-size="8" fill="#666666">4.2m</text>
  <text x="344.3" y="308.3" text-anchor="middle" font-family="Arial" font-size="9" font-weight="bold" fill="#333333" data-label-for="30">[31] W</text>
  <text x="344.3" y="318.3" text-anchor="middle" font-family="Arial" font-size="8" fill="#666666">4.3m</text>
  <text x="325.8" y="294.0" text-anchor="middle" font-family="Arial" font-size="9" font-weight="bold" fill="#333333" data-label-for="31">[32] N</text>
  <text x="325.8" y="304.0" text-anchor="middle" font-family="Arial" font-size="8" fill="#666666">1.4m</text>
  <text x="324.0" y="298.7" text-anchor="middle" font-family="Arial" font-size="9" font-weight="bold" fill="#333333" data-label-for="32">[33] W</text>
  <text x="324.0" y="308.7" text-anchor="middle" font-family="Arial" font-size="8" fill="#666666">3.8m</text>
  <text x="317.7" y="299.4" text-anchor="middle" font-family="Arial" font-size="9" font-weight="bold" fill="#333333" data-label-for="33">[34] SW</text>
  <text x="317.7" y="309.4" text-anchor="middle" font-family="Arial" font-size="8" fill="#666666">1.6m</text>
  <text x="299.3" y="295.9" text-anchor="middle" font-family="Arial" font-size="9" font-weight="bold" fill="#333333" data-label-for="34">[35] N</text>
  <text x="299.3" y="305.9" text-anchor="middle" font-family="Arial" font-size="8" fill="#666666">1.4m</text>
  <text x="299.3" y="300.5" text-anchor="middle" font-family="Arial" font-size="9" font-weight="bold" fill="#333333" data-label-for="35">[36] W</text>
  <text x="299.3" y="310.5" text-anchor="middle" font-family="Arial" font-size="8" fill="#666666">3.1m</text>
  <text x="298.7" y="296.0" text-anchor="middle" font-family="Arial" font-size="9" font-weight="bold" fill="#333333" data-label-for="36">[37] S</text>
  <text x="298.7" y="306.0" text-anchor="middle" font-family="Arial" font-size="8" fill="#666666">1.4m</text>
  <text x="280.9" y="301.9" text-anchor="middle" font-family="Arial" font-size="9" font-weight="bold" fill="#333333" data-label-for="37">[38] NW</text>
  <text x="280.9" y="311.9" text-anchor="middle" font-family="Arial" font-size="8" fill="#666666">1.7m</text>
  <text x="276.3" y="302.1" text-anchor="middle" font-family="Arial" font-size="9" font-weight="bold" fill="#333333" data-label-for="38">[39] W</text>
  <text x="276.3" y="312.1" text-anchor="middle" font-family="Arial" font-size="8" fill="#666666">3.1m</text>
  <text x="276.0" y="304.1" text-anchor="middle" font-family="Arial" font-size="9" font-weight="bold" fill="#333333" data-label-for="39">[40] S</text>
  <text x="276.0" y="314.1" text-anchor="middle" font-family="Arial" font-size="8" fill="#666666">3.7m</text>
  <text x="216.8" y="327.0" text-anchor="middle" font-family="Arial" font-size="9" font-weight="bold" fill="#333333" data-label-for="40">[41] W</text>
  <text x="216.8" y="337.0" text-anchor="middle" font-family="Arial" font-size="8" fill="#666666">18.4m</text>
  <text x="153.0" y="327.4" text-anchor="middle" font-family="Arial" font-size="9" font-weight="bold" fill="#333333" data-label-for="41">[42] W</text>
  <text x="153.0" y="337.4" text-anchor="middle" font-family="Arial" font-size="8" fill="#666666">3.3m</text>
  <text x="138.3" y="309.8" text-anchor="middle" font-family="Arial" font-size="9" font-weight="bold" fill="#333333" data-label-for="42">[43] N</text>
  <text x="138.3" y="319.8" text-anchor="middle" font-family="Arial" font-size="8" fill="#666666">2.4m</text>
  <text x="130.7" y="312.3" text-anchor="middle" font-family="Arial" font-size="9" font-weight="bold" fill="#333333" data-label-for="43">[44] W</text>
  <text x="130.7" y="322.3" text-anchor="middle" font-family="Arial" font-size="8" fill="#666666">5.8m</text>
  <text x="102.9" y="254.4" text-anchor="middle" font-family="Arial" font-size="9" font-weight="bold" fill="#333333" data-label-for="44">[45] N</text>
  <text x="102.9" y="264.4" text-anchor="middle" font-family="Arial" font-size="8" fill="#666666">18.1m</text>
  <text x="100.6" y="197.9" text-anchor="middle" font-family="Arial" font-size="9" font-weight="bold" fill="#333333" data-label-for="45">[46] N</text>
  <text x="100.6" y="207.9" text-anchor="middle" font-family="Arial" font-size="8" fill="#666666">1.9m</text>
  <!-- Verankerungspunkte -->
  <g class="anchor-point corner">
    <circle cx="108.9" cy="192.5" r="5" fill="#dc3545" stroke="#1e40af" stroke-width="1"/>
    <line x1="105.9" y1="192.5" x2="111.9" y2="192.5" stroke="white" stroke-width="1.5"/>
    <line x1="108.9" y1="189.5" x2="108.9" y2="195.5" stroke="white" stroke-width="1.5"/>
  </g>
  <g class="anchor-point corner">
    <circle cx="138.9" cy="190.4" r="5" fill="#dc3545" stroke="#1e40af" stroke-width="1"/>
    <line x1="135.9" y1="190.4" x2="141.9" y2="190.4" stroke="white" stroke-width="1.5"/>
    <line x1="138.9" y1="187.4" x2="138.9" y2="193.4" stroke="white" stroke-width="1.5"/>
  </g>
  <g class="anchor-point corner">
    <circle cx="140.4" cy="173.2" r="5" fill="#dc3545" stroke="#1e40af" stroke-width="1"/>
    <line x1="137.4" y1="173.2" x2="143.4" y2="173.2" stroke="white" stroke-width="1.5"/>
    <line x1="140.4" y1="170.2" x2="140.4" y2="176.2" stroke="white" stroke-width="1.5"/>
  </g>
  <g class="anchor-point corner">
    <circle cx="178.1" cy="170.2" r="5" fill="#dc3545" stroke="#1e40af" stroke-width="1"/>
    <line x1="175.1" y1="170.2" x2="181.1" y2="170.2" stroke="white" stroke-width="1.5"/>
    <line x1="178.1" y1="167.2" x2="178.1" y2="173.2" stroke="white" stroke-width="1.5"/>
  </g>
  <g class="anchor-point corner">
    <circle cx="177.6" cy="161.7" r="5" fill="#dc3545" stroke="#1e40af" stroke-width="1"/>
    <line x1="174.6" y1="161.7" x2="180.6" y2="161.7" stroke="white" stroke-width="1.5"/>
    <line x1="177.6" y1="158.7" x2="177.6" y2="164.7" stroke="white" stroke-width="1.5"/>
  </g>
  <g class="anchor-point corner">
    <circle cx="185.2" cy="161.2" r="5" fill="#dc3545" stroke="#1e40af" stroke-width="1"/>
    <line x1="182.2" y1="161.2" x2="188.2" y2="161.2" stroke="white" stroke-width="1.5"/>
    <line x1="185.2" y1="158.2" x2="185.2" y2="164.2" stroke="white" stroke-width="1.5"/>
  </g>
  <g class="anchor-point corner">
    <circle cx="185.8" cy="169.7" r="5" fill="#dc3545" stroke="#1e40af" stroke-width="1"/>
    <line x1="182.8" y1="169.7" x2="188.8" y2="169.7" stroke="white" stroke-width="1.5"/>
    <line x1="185.8" y1="166.7" x2="185.8" y2="172.7" stroke="white" stroke-width="1.5"/>
  </g>
  <g class="anchor-point corner">
    <circle cx="226.5" cy="166.8" r="5" fill="#dc3545" stroke="#1e40af" stroke-width="1"/>
    <line x1="223.5" y1="166.8" x2="229.5" y2="166.8" stroke="white" stroke-width="1.5"/>
    <line x1="226.5" y1="163.8" x2="226.5" y2="169.8" stroke="white" stroke-width="1.5"/>
  </g>
  <g class="anchor-point corner">
    <circle cx="226.0" cy="158.3" r="5" fill="#dc3545" stroke="#1e40af" stroke-width="1"/>
    <line x1="223.0" y1="158.3" x2="229.0" y2="158.3" stroke="white" stroke-width="1.5"/>
    <line x1="226.0" y1="155.3" x2="226.0" y2="161.3" stroke="white" stroke-width="1.5"/>
  </g>
  <g class="anchor-point corner">
    <circle cx="233.6" cy="157.8" r="5" fill="#dc3545" stroke="#1e40af" stroke-width="1"/>
    <line x1="230.6" y1="157.8" x2="236.6" y2="157.8" stroke="white" stroke-width="1.5"/>
    <line x1="233.6" y1="154.8" x2="233.6" y2="160.8" stroke="white" stroke-width="1.5"/>
  </g>
  <g class="anchor-point corner">
    <circle cx="234.2" cy="166.2" r="5" fill="#dc3545" stroke="#1e40af" stroke-width="1"/>
    <line x1="231.2" y1="166.2" x2="237.2" y2="166.2" stroke="white" stroke-width="1.5"/>
    <line x1="234.2" y1="163.2" x2="234.2" y2="169.2" stroke="white" stroke-width="1.5"/>
  </g>
  <g class="anchor-point corner">
    <circle cx="258.3" cy="161.3" r="5" fill="#dc3545" stroke="#1e40af" stroke-width="1"/>
    <line x1="255.3" y1="161.3" x2="261.3" y2="161.3" stroke="white" stroke-width="1.5"/>
    <line x1="258.3" y1="158.3" x2="258.3" y2="164.3" stroke="white" stroke-width="1.5"/>
  </g>
  <g class="anchor-point corner">
    <circle cx="259.6" cy="181.8" r="5" fill="#dc3545" stroke="#1e40af" stroke-width="1"/>
    <line x1="256.6" y1="181.8" x2="262.6" y2="181.8" stroke="white" stroke-width="1.5"/>
    <line x1="259.6" y1="178.8" x2="259.6" y2="184.8" stroke="white" stroke-width="1.5"/>
  </g>
  <g class="anchor-point corner">
    <circle cx="276.6" cy="180.7" r="5" fill="#dc3545" stroke="#1e40af" stroke-width="1"/>
    <line x1="273.6" y1="180.7" x2="279.6" y2="180.7" stroke="white" stroke-width="1.5"/>
    <line x1="276.6" y1="177.7" x2="276.6" y2="183.7" stroke="white" stroke-width="1.5"/>
  </g>
  <g class="anchor-point corner">
    <circle cx="276.1" cy="172.2" r="5" fill="#dc3545" stroke="#1e40af" stroke-width="1"/>
    <line x1="273.1" y1="172.2" x2="279.1" y2="172.2" stroke="white" stroke-width="1.5"/>
    <line x1="276.1" y1="169.2" x2="276.1" y2="175.2" stroke="white" stroke-width="1.5"/>
  </g>
  <g class="anchor-point corner">
    <circle cx="282.2" cy="171.8" r="5" fill="#dc3545" stroke="#1e40af" stroke-width="1"/>
    <line x1="279.2" y1="171.8" x2="285.2" y2="171.8" stroke="white" stroke-width="1.5"/>
    <line x1="282.2" y1="168.8" x2="282.2" y2="174.8" stroke="white" stroke-width="1.5"/>
  </g>
  <g class="anchor-point corner">
    <circle cx="282.7" cy="180.2" r="5" fill="#dc3545" stroke="#1e40af" stroke-width="1"/>
    <line x1="279.7" y1="180.2" x2="285.7" y2="180.2" stroke="white" stroke-width="1.5"/>
    <line x1="282.7" y1="177.2" x2="282.7" y2="183.2" stroke="white" stroke-width="1.5"/>
  </g>
  <g class="anchor-point corner">
    <circle cx="299.6" cy="179.1" r="5" fill="#dc3545" stroke="#1e40af" stroke-width="1"/>
    <line x1="296.6" y1="179.1" x2="302.6" y2="179.1" stroke="white" stroke-width="1.5"/>
    <line x1="299.6" y1="176.1" x2="299.6" y2="182.1" stroke="white" stroke-width="1.5"/>
  </g>
  <g class="anchor-point corner">
    <circle cx="299.0" cy="170.6" r="5" fill="#dc3545" stroke="#1e40af" stroke-width="1"/>
    <line x1="296.0" y1="170.6" x2="302.0" y2="170.6" stroke="white" stroke-width="1.5"/>
    <line x1="299.0" y1="167.6" x2="299.0" y2="173.6" stroke="white" stroke-width="1.5"/>
  </g>
  <g class="anchor-point corner">
    <circle cx="305.1" cy="170.2" r="5" fill="#dc3545" stroke="#1e40af" stroke-width="1"/>
    <line x1="302.1" y1="170.2" x2="308.1" y2="170.2" stroke="white" stroke-width="1.5"/>
    <line x1="305.1" y1="167.2" x2="305.1" y2="173.2" stroke="white" stroke-width="1.5"/>
  </g>
  <g class="anchor-point corner">
    <circle cx="305.7" cy="178.7" r="5" fill="#dc3545" stroke="#1e40af" stroke-width="1"/>
    <line x1="302.7" y1="178.7" x2="308.7" y2="178.7" stroke="white" stroke-width="1.5"/>
    <line x1="305.7" y1="175.7" x2="305.7" y2="181.7" stroke="white" stroke-width="1.5"/>
  </g>
  <g class="anchor-point corner">
    <circle cx="325.8" cy="177.3" r="5" fill="#dc3545" stroke="#1e40af" stroke-width="1"/>
    <line x1="322.8" y1="177.3" x2="328.8" y2="177.3" stroke="white" stroke-width="1.5"/>
    <line x1="325.8" y1="174.3" x2="325.8" y2="180.3" stroke="white" stroke-width="1.5"/>
  </g>
  <g class="anchor-point corner">
    <circle cx="325.3" cy="169.0" r="5" fill="#dc3545" stroke="#1e40af" stroke-width="1"/>
    <line x1="322.3" y1="169.0" x2="328.3" y2="169.0" stroke="white" stroke-width="1.5"/>
    <line x1="325.3" y1="166.0" x2="325.3" y2="172.0" stroke="white" stroke-width="1.5"/>
  </g>
  <g class="anchor-point corner">
    <circle cx="348.1" cy="160.5" r="5" fill="#dc3545" stroke="#1e40af" stroke-width="1"/>
    <line x1="345.1" y1="160.5" x2="351.1" y2="160.5" stroke="white" stroke-width="1.5"/>
    <line x1="348.1" y1="157.5" x2="348.1" y2="163.5" stroke="white" stroke-width="1.5"/>
  </g>
  <g class="anchor-point corner">
    <circle cx="366.8" cy="174.8" r="5" fill="#dc3545" stroke="#1e40af" stroke-width="1"/>
    <line x1="363.8" y1="174.8" x2="369.8" y2="174.8" stroke="white" stroke-width="1.5"/>
    <line x1="366.8" y1="171.8" x2="366.8" y2="177.8" stroke="white" stroke-width="1.5"/>
  </g>
  <g class="anchor-point corner">
    <circle cx="365.5" cy="202.0" r="5" fill="#dc3545" stroke="#1e40af" stroke-width="1"/>
    <line x1="362.5" y1="202.0" x2="368.5" y2="202.0" stroke="white" stroke-width="1.5"/>
    <line x1="365.5" y1="199.0" x2="365.5" y2="205.0" stroke="white" stroke-width="1.5"/>
  </g>
  <g class="anchor-point corner">
    <circle cx="378.1" cy="210.9" r="5" fill="#dc3545" stroke="#1e40af" stroke-width="1"/>
    <line x1="375.1" y1="210.9" x2="381.1" y2="210.9" stroke="white" stroke-width="1.5"/>
    <line x1="378.1" y1="207.9" x2="378.1" y2="213.9" stroke="white" stroke-width="1.5"/>
  </g>
  <g class="anchor-point corner">
    <circle cx="381.1" cy="249.1" r="5" fill="#dc3545" stroke="#1e40af" stroke-width="1"/>
    <line x1="378.1" y1="249.1" x2="384.1" y2="249.1" stroke="white" stroke-width="1.5"/>
    <line x1="381.1" y1="246.1" x2="381.1" y2="252.1" stroke="white" stroke-width="1.5"/>
  </g>
  <g class="anchor-point corner">
    <circle cx="369.5" cy="259.8" r="5" fill="#dc3545" stroke="#1e40af" stroke-width="1"/>
    <line x1="366.5" y1="259.8" x2="372.5" y2="259.8" stroke="white" stroke-width="1.5"/>
    <line x1="369.5" y1="256.8" x2="369.5" y2="262.8" stroke="white" stroke-width="1.5"/>
  </g>
  <g class="anchor-point corner">
    <circle cx="374.9" cy="286.7" r="5" fill="#dc3545" stroke="#1e40af" stroke-width="1"/>
    <line x1="371.9" y1="286.7" x2="377.9" y2="286.7" stroke="white" stroke-width="1.5"/>
    <line x1="374.9" y1="283.7" x2="374.9" y2="289.7" stroke="white" stroke-width="1.5"/>
  </g>
  <g class="anchor-point corner">
    <circle cx="358.0" cy="302.9" r="5" fill="#dc3545" stroke="#1e40af" stroke-width="1"/>
    <line x1="355.0" y1="302.9" x2="361.0" y2="302.9" stroke="white" stroke-width="1.5"/>
    <line x1="358.0" y1="299.9" x2="358.0" y2="305.9" stroke="white" stroke-width="1.5"/>
  </g>
  <g class="anchor-point corner">
    <circle cx="334.5" cy="297.3" r="5" fill="#dc3545" stroke="#1e40af" stroke-width="1"/>
    <line x1="331.5" y1="297.3" x2="337.5" y2="297.3" stroke="white" stroke-width="1.5"/>
    <line x1="334.5" y1="294.3" x2="334.5" y2="300.3" stroke="white" stroke-width="1.5"/>
  </g>
  <g class="anchor-point corner">
    <circle cx="333.9" cy="289.5" r="5" fill="#dc3545" stroke="#1e40af" stroke-width="1"/>
    <line x1="330.9" y1="289.5" x2="336.9" y2="289.5" stroke="white" stroke-width="1.5"/>
    <line x1="333.9" y1="286.5" x2="333.9" y2="292.5" stroke="white" stroke-width="1.5"/>
  </g>
  <g class="anchor-point corner">
    <circle cx="312.8" cy="291.1" r="5" fill="#dc3545" stroke="#1e40af" stroke-width="1"/>
    <line x1="309.8" y1="291.1" x2="315.8" y2="291.1" stroke="white" stroke-width="1.5"/>
    <line x1="312.8" y1="288.1" x2="312.8" y2="294.1" stroke="white" stroke-width="1.5"/>
  </g>
  <g class="anchor-point corner">
    <circle cx="308.0" cy="299.1" r="5" fill="#dc3545" stroke="#1e40af" stroke-width="1"/>
    <line x1="305.0" y1="299.1" x2="311.0" y2="299.1" stroke="white" stroke-width="1.5"/>
    <line x1="308.0" y1="296.1" x2="308.0" y2="302.1" stroke="white" stroke-width="1.5"/>
  </g>
  <g class="anchor-point corner">
    <circle cx="307.4" cy="291.5" r="5" fill="#dc3545" stroke="#1e40af" stroke-width="1"/>
    <line x1="304.4" y1="291.5" x2="310.4" y2="291.5" stroke="white" stroke-width="1.5"/>
    <line x1="307.4" y1="288.5" x2="307.4" y2="294.5" stroke="white" stroke-width="1.5"/>
  </g>
  <g class="anchor-point corner">
    <circle cx="290.0" cy="292.7" r="5" fill="#dc3545" stroke="#1e40af" stroke-width="1"/>
    <line x1="287.0" y1="292.7" x2="293.0" y2="292.7" stroke="white" stroke-width="1.5"/>
    <line x1="290.0" y1="289.7" x2="290.0" y2="295.7" stroke="white" stroke-width="1.5"/>
  </g>
  <g class="anchor-point corner">
    <circle cx="290.4" cy="300.3" r="5" fill="#dc3545" stroke="#1e40af" stroke-width="1"/>
    <line x1="287.4" y1="300.3" x2="293.4" y2="300.3" stroke="white" stroke-width="1.5"/>
    <line x1="290.4" y1="297.3" x2="290.4" y2="303.3" stroke="white" stroke-width="1.5"/>
  </g>
  <g class="anchor-point corner">
    <circle cx="284.5" cy="293.0" r="5" fill="#dc3545" stroke="#1e40af" stroke-width="1"/>
    <line x1="281.5" y1="293.0" x2="287.5" y2="293.0" stroke="white" stroke-width="1.5"/>
    <line x1="284.5" y1="290.0" x2="284.5" y2="296.0" stroke="white" stroke-width="1.5"/>
  </g>
  <g class="anchor-point corner">
    <circle cx="266.9" cy="294.2" r="5" fill="#dc3545" stroke="#1e40af" stroke-width="1"/>
    <line x1="263.9" y1="294.2" x2="269.9" y2="294.2" stroke="white" stroke-width="1.5"/>
    <line x1="266.9" y1="291.2" x2="266.9" y2="297.2" stroke="white" stroke-width="1.5"/>
  </g>
  <g class="anchor-point corner">
    <circle cx="268.1" cy="314.9" r="5" fill="#dc3545" stroke="#1e40af" stroke-width="1"/>
    <line x1="265.1" y1="314.9" x2="271.1" y2="314.9" stroke="white" stroke-width="1.5"/>
    <line x1="268.1" y1="311.9" x2="268.1" y2="317.9" stroke="white" stroke-width="1.5"/>
  </g>
  <g class="anchor-point corner">
    <circle cx="164.4" cy="322.2" r="5" fill="#dc3545" stroke="#1e40af" stroke-width="1"/>
    <line x1="161.4" y1="322.2" x2="167.4" y2="322.2" stroke="white" stroke-width="1.5"/>
    <line x1="164.4" y1="319.2" x2="164.4" y2="325.2" stroke="white" stroke-width="1.5"/>
  </g>
  <g class="anchor-point corner">
    <circle cx="146.9" cy="316.5" r="5" fill="#dc3545" stroke="#1e40af" stroke-width="1"/>
    <line x1="143.9" y1="316.5" x2="149.9" y2="316.5" stroke="white" stroke-width="1.5"/>
    <line x1="146.9" y1="313.5" x2="146.9" y2="319.5" stroke="white" stroke-width="1.5"/>
  </g>
  <g class="anchor-point corner">
    <circle cx="146.6" cy="302.7" r="5" fill="#dc3545" stroke="#1e40af" stroke-width="1"/>
    <line x1="143.6" y1="302.7" x2="149.6" y2="302.7" stroke="white" stroke-width="1.5"/>
    <line x1="146.6" y1="299.7" x2="146.6" y2="305.7" stroke="white" stroke-width="1.5"/>
  </g>
  <g class="anchor-point corner">
    <circle cx="113.7" cy="304.9" r="5" fill="#dc3545" stroke="#1e40af" stroke-width="1"/>
    <line x1="110.7" y1="304.9" x2="116.7" y2="304.9" stroke="white" stroke-width="1.5"/>
    <line x1="113.7" y1="301.9" x2="113.7" y2="307.9" stroke="white" stroke-width="1.5"/>
  </g>
  <g class="anchor-point corner">
    <circle cx="109.1" cy="203.0" r="5" fill="#dc3545" stroke="#1e40af" stroke-width="1"/>
    <line x1="106.1" y1="203.0" x2="112.1" y2="203.0" stroke="white" stroke-width="1.5"/>
    <line x1="109.1" y1="200.0" x2="109.1" y2="206.0" stroke="white" stroke-width="1.5"/>
  </g>
  <g class="anchor-point intermediate">
    <circle cx="242.2" cy="316.7" r="4" fill="#dc3545" stroke="#3b82f6" stroke-width="1"/>
    <line x1="240.2" y1="316.7" x2="244.2" y2="316.7" stroke="white" stroke-width="1"/>
  </g>
  <g class="anchor-point intermediate">
    <circle cx="216.2" cy="318.5" r="4" fill="#dc3545" stroke="#3b82f6" stroke-width="1"/>
    <line x1="214.2" y1="318.5" x2="218.2" y2="318.5" stroke="white" stroke-width="1"/>
  </g>
  <g class="anchor-point intermediate">
    <circle cx="190.3" cy="320.4" r="4" fill="#dc3545" stroke="#3b82f6" stroke-width="1"/>
    <line x1="188.3" y1="320.4" x2="192.3" y2="320.4" stroke="white" stroke-width="1"/>
  </g>
  <g class="anchor-point intermediate">
    <circle cx="112.5" cy="279.4" r="4" fill="#dc3545" stroke="#3b82f6" stroke-width="1"/>
    <line x1="110.5" y1="279.4" x2="114.5" y2="279.4" stroke="white" stroke-width="1"/>
  </g>
  <g class="anchor-point intermediate">
    <circle cx="111.4" cy="254.0" r="4" fill="#dc3545" stroke="#3b82f6" stroke-width="1"/>
    <line x1="109.4" y1="254.0" x2="113.4" y2="254.0" stroke="white" stroke-width="1"/>
  </g>
  <g class="anchor-point intermediate">
    <circle cx="110.3" cy="228.5" r="4" fill="#dc3545" stroke="#3b82f6" stroke-width="1"/>
    <line x1="108.3" y1="228.5" x2="112.3" y2="228.5" stroke="white" stroke-width="1"/>
  </g>

  <text x="245.0" y="232.0" text-anchor="middle" font-family="Arial" font-size="12" font-weight="bold" fill="#333333">1099 m²</text>
  <text x="245.0" y="248.0" text-anchor="middle" font-family="Arial" font-size="9" fill="#666666">Umfang: 168.1 m</text>

  <!-- Legende -->
  <g transform="translate(445, 55)">
    <rect x="0" y="0" width="140" height="79" fill="#ffffff" stroke="#cccccc" rx="4"/>
    <text x="8" y="15" font-family="Arial, sans-serif" font-size="10" font-weight="bold" fill="#333333">Legende</text>
    <rect x="8" y="25" width="20" height="10" fill="#e0e0e0" stroke="#333"/>
    <text x="33" y="33" font-family="Arial" font-size="8" fill="#333333">Gebäude</text>
    <rect x="8" y="43" width="20" height="10" fill="#fff3cd" stroke="#ffc107"/>
    <text x="33" y="51" font-family="Arial" font-size="8" fill="#333333">Gerüst W09</text>
    <circle cx="18" cy="66" r="4" fill="#dc3545"/>
    <text x="33" y="69" font-family="Arial" font-size="8" fill="#333333">Verankerung</text>
  </g>

  <!-- Gebäude Info -->
  <g transform="translate(50, 435)">
    <rect x="0" y="0" width="280" height="50" fill="#e8f5e9" stroke="#4caf50" rx="4"/>
    <text x="10" y="15" font-family="Arial" font-size="10" font-weight="bold" fill="#2e7d32">Gebäudedaten:</text>
    <text x="10" y="30" font-family="Arial" font-size="9" fill="#333333">Traufe: 46.4m</text>
    <text x="10" y="43" font-family="Arial" font-size="9" fill="#333333">Geschosse: — | L×B: 18.4m × 18.1m</text>
  </g>

  <!-- Massstab -->
  <g transform="translate(460, 465)">
    <line x1="0" y1="0" x2="56.45756457564575" y2="0" stroke="#333" stroke-width="2"/>
    <line x1="0" y1="-5" x2="0" y2="5" stroke="#333" stroke-width="2"/>
    <line x1="56.45756457564575" y1="-5" x2="56.45756457564575" y2="5" stroke="#333" stroke-width="2"/>
    <text x="28.228782287822874" y="15" text-anchor="middle" font-family="Arial" font-size="9">10 m</text>
  </g>

  <!-- Nordpfeil -->
  <g transform="translate(575, 475)">
    <text x="0" y="0" font-family="Arial" font-size="14" font-weight="bold" fill="#333">N</text>
    <line x1="7" y1="10" x2="7" y2="40" stroke="#333" stroke-width="2"/>
    <polygon points="7,40 3,32 11,32" fill="#333"/>
  </g>

  <text x="300.0" y="490" text-anchor="middle" font-family="Arial" font-size="9" fill="#666666">
    LV95 (EPSG:2056) | EGID: 191821074 | Fläche: 1099 m²
  </text>
</svg>